<svg width="33" height="29" viewBox="0 0 33 29" fill="none" xmlns="http://www.w3.org/2000/svg">
<path d="M15.5848 28.2427C14.7842 29.2524 13.2158 29.2524 12.4152 28.2427L9.55054 24.63C8.53815 23.3533 9.47568 21.504 11.1354 21.504H16.8646C18.5243 21.504 19.4618 23.3533 18.4495 24.63L15.5848 28.2427Z" fill="black"/>
<path d="M0 8.88329C0 6.73861 1.79086 5 4 5H24C26.2091 5 28 6.73861 28 8.88329V20.5332C28 22.6779 26.2091 24.4165 24 24.4165H4C1.79086 24.4165 0 22.6779 0 20.5332V8.88329Z" fill="black"/>
<path d="M21 5C21 4.44772 21.4477 4 22 4H32C32.5523 4 33 4.44772 33 5V7C33 7.55228 32.5523 8 32 8H22C21.4477 8 21 7.55228 21 7V5Z" fill="#D9D9D9"/>
<path d="M25 1C25 0.447715 25.4477 0 26 0H28C28.5523 0 29 0.447715 29 1V11C29 11.5523 28.5523 12 28 12H26C25.4477 12 25 11.5523 25 11V1Z" fill="#D9D9D9"/>
</svg>
