<svg width="10" height="12" viewBox="0 0 10 12" fill="none" xmlns="http://www.w3.org/2000/svg">
<path d="M1 4C1 3.44772 1.44772 3 2 3H8C8.55228 3 9 3.44772 9 4V11C9 11.5523 8.55228 12 8 12H2C1.44772 12 1 11.5523 1 11V4Z" fill="black"/>
<path d="M0 3C0 2.44772 0.447715 2 1 2H9C9.55228 2 10 2.44772 10 3C10 3.55228 9.55228 4 9 4H1C0.447715 4 0 3.55228 0 3Z" fill="black"/>
<path d="M3 0C2.44772 0 2 0.447715 2 1V2H3C3 1.44772 3.44772 1 4 1H6C6.55228 1 7 1.44772 7 2H8V1C8 0.447715 7.55228 0 7 0H3Z" fill="black"/>
</svg>
